<svg xmlns="http://www.w3.org/2000/svg" width="500pt" height="400pt" viewBox="150 250 500 500">

<g transform="translate(0.000000,1000.000000) scale(0.100000,-0.100000)"
fill="#000000" stroke="none">
<path d="M4172 6708 c3 -32 5 -33 48 -33 43 0 45 1 48 33 l3 32 -51 0 -51 0 3
-32z"/>
<path d="M3030 6695 l0 -36 43 3 c39 3 42 5 42 33 0 28 -3 30 -42 33 l-43 3 0
-36z"/>
<path d="M5930 6675 c0 -25 1 -25 90 -25 89 0 90 0 90 25 0 25 -1 25 -90 25
-89 0 -90 0 -90 -25z"/>
<path d="M4230 6600 c0 -29 1 -30 50 -30 49 0 50 1 50 30 0 29 -1 30 -50 30
-49 0 -50 -1 -50 -30z"/>
<path d="M4040 6595 c0 -10 11 -15 35 -15 24 0 35 5 35 15 0 10 -11 15 -35 15
-24 0 -35 -5 -35 -15z"/>
<path d="M6722 6473 c3 -15 16 -19 77 -21 51 -2 77 1 82 10 14 23 -2 28 -82
28 -71 0 -80 -2 -77 -17z"/>
<path d="M5957 6414 c-17 -18 -3 -24 54 -24 44 0 60 3 57 13 -5 13 -99 23
-111 11z"/>
<path d="M6394 6326 c-3 -8 -4 -25 -2 -38 3 -22 6 -23 93 -23 l90 0 0 35 0 35
-88 3 c-69 2 -88 0 -93 -12z"/>
<path d="M2954 6063 c3 -108 8 -198 9 -200 2 -1 42 0 90 4 l87 6 0 28 c0 28
-2 29 -44 29 -50 0 -55 7 -48 67 4 41 5 42 46 45 38 3 41 5 41 33 -1 29 -3 30
-53 33 l-52 3 0 39 0 39 58 3 c56 3 57 3 60 36 l3 32 -102 0 -102 0 7 -197z"/>
<path d="M3180 6152 c0 -71 4 -112 12 -120 9 -9 9 -12 0 -12 -8 0 -12 -25 -12
-81 l0 -80 38 3 37 3 -4 78 -3 77 26 0 c22 0 26 -4 26 -30 0 -19 5 -30 14 -30
10 0 16 -14 18 -42 3 -43 3 -43 46 -46 39 -3 42 -2 42 23 0 17 -7 29 -22 35
-13 5 -17 9 -10 9 8 1 12 17 12 46 0 38 -4 47 -22 55 -17 6 -19 9 -6 9 26 1
38 33 38 101 0 51 -4 65 -25 85 -22 23 -32 25 -115 25 l-90 0 0 -108z m141 38
c12 -7 19 -21 19 -40 0 -15 6 -31 13 -33 6 -3 -1 -4 -18 -3 -16 2 -24 1 -17
-1 29 -10 2 -33 -39 -33 -16 0 -19 7 -19 53 0 69 14 82 61 57z"/>
<path d="M3430 6152 c0 -71 4 -112 12 -120 9 -9 9 -12 0 -12 -8 0 -12 -25 -12
-81 l0 -80 38 3 37 3 -4 78 -3 77 26 0 c22 0 26 -4 26 -30 0 -19 5 -30 14 -30
10 0 16 -14 18 -42 3 -43 3 -43 46 -46 39 -3 42 -1 42 21 0 17 -7 27 -22 32
-14 4 -18 8 -10 12 7 3 12 24 12 54 0 28 -4 48 -8 45 -4 -2 -14 -1 -22 5 -13
7 -12 9 2 9 26 0 38 32 38 100 0 51 -4 65 -25 85 -22 23 -32 25 -115 25 l-90
0 0 -108z m141 38 c12 -7 19 -21 19 -40 0 -15 6 -31 13 -33 6 -3 -1 -4 -18 -3
-16 2 -24 1 -17 -1 29 -10 2 -33 -39 -33 -17 0 -19 8 -19 60 0 54 2 60 21 60
11 0 29 -5 40 -10z"/>
<path d="M3758 6244 c-41 -22 -51 -49 -56 -156 -4 -74 -8 -98 -18 -98 -8 0
-14 -4 -14 -10 0 -14 33 -13 48 2 9 9 12 9 12 0 0 -7 -4 -12 -10 -12 -19 0
-10 -32 10 -37 12 -3 20 -14 20 -27 0 -35 20 -46 80 -46 64 0 110 17 110 42 0
9 5 20 10 23 15 9 13 142 -2 149 -10 5 -10 7 0 12 18 8 15 73 -6 114 -9 19
-28 40 -42 47 -34 17 -109 16 -142 -3z m110 -72 c8 -10 12 -51 12 -119 0 -85
-3 -103 -15 -103 -8 0 -15 -4 -15 -10 0 -5 -16 -10 -35 -10 l-35 0 0 69 c0 46
-4 71 -12 74 -10 4 -10 8 -2 14 6 4 15 27 19 50 10 60 49 77 83 35z"/>
<path d="M3990 6175 c0 -69 -3 -85 -15 -85 -8 0 -15 -4 -15 -10 0 -5 7 -10 15
-10 8 0 15 -7 15 -15 0 -7 8 -19 18 -24 16 -10 16 -10 0 -11 -16 0 -18 -11
-18 -80 l0 -80 40 0 40 0 -6 80 -7 80 27 0 c21 0 26 -5 26 -25 0 -14 8 -29 20
-35 14 -8 19 -19 17 -48 -2 -37 -2 -37 41 -40 39 -3 42 -2 42 23 0 17 -7 28
-22 34 -18 6 -19 9 -5 14 11 4 17 18 17 36 0 40 -9 61 -25 55 -7 -3 -16 -1
-20 5 -3 6 1 11 9 11 24 0 39 40 39 104 -1 52 -4 63 -28 83 -23 20 -37 23
-116 23 l-89 0 0 -85z m148 13 c7 -7 12 -24 12 -39 0 -15 6 -30 13 -32 6 -3
-1 -4 -18 -3 -16 2 -24 1 -17 -1 6 -2 12 -9 12 -14 0 -11 -46 -23 -59 -14 -12
7 -15 97 -4 108 11 11 48 8 61 -5z"/>
<path d="M4485 6190 c-20 -39 -33 -74 -31 -79 3 -4 -7 -7 -22 -5 -15 2 -19 1
-9 -2 22 -7 22 -5 -8 -64 -14 -27 -25 -64 -25 -81 l0 -32 69 7 70 6 3 -37 c3
-35 6 -38 36 -41 32 -3 32 -3 32 41 0 31 5 47 15 51 8 3 15 15 15 26 0 11 -7
23 -15 26 -12 5 -15 29 -15 130 l0 124 -40 0 c-39 0 -40 -1 -75 -70z m35 -140
c0 -49 -1 -50 -30 -50 -16 0 -30 2 -30 5 0 13 45 95 52 95 4 0 8 -22 8 -50z"/>
<path d="M4697 6249 c-31 -18 -46 -63 -48 -144 -1 -44 2 -80 7 -82 5 -2 7 -32
6 -68 -3 -54 -1 -65 12 -65 9 0 16 -7 16 -15 0 -13 14 -15 83 -13 76 3 82 5
85 26 2 12 9 22 16 22 15 0 26 71 26 165 -1 139 -33 185 -128 185 -31 0 -65
-5 -75 -11z m101 -71 c5 -7 13 -63 17 -124 l7 -111 -33 -7 c-18 -3 -37 -2 -42
3 -16 16 -22 218 -7 236 15 18 44 20 58 3z"/>
<path d="M4984 6248 c-24 -11 -44 -48 -44 -78 0 -28 55 -28 70 0 16 29 58 27
66 -4 10 -41 -4 -66 -37 -66 -22 0 -29 -5 -29 -19 0 -35 12 -51 36 -51 22 0
24 -4 24 -55 0 -55 0 -55 -31 -55 -22 0 -32 5 -36 20 -4 15 -14 20 -39 20 -30
0 -34 -3 -34 -28 0 -48 34 -67 117 -67 43 1 78 6 85 13 16 16 28 15 28 -3 0
-12 18 -15 100 -15 l100 0 0 25 0 25 -100 0 c-92 0 -100 2 -100 19 0 11 -8 22
-17 24 -17 4 -17 5 0 6 22 1 24 67 2 91 -12 13 -13 23 -5 44 22 59 3 145 -35
160 -25 9 -97 6 -121 -6z"/>
<path d="M6602 6193 c3 -38 3 -38 48 -38 63 -1 70 3 70 41 l0 34 -61 0 -60 0
3 -37z"/>
<path d="M5914 6055 c-12 -29 4 -45 45 -45 40 0 56 16 45 45 -4 10 -20 15 -45
15 -26 0 -42 -5 -45 -15z"/>
<path d="M6304 6005 c-9 -22 9 -37 37 -33 16 2 24 10 24 23 0 26 -52 35 -61
10z"/>
<path d="M5168 5953 c6 -2 18 -2 25 0 6 3 1 5 -13 5 -14 0 -19 -2 -12 -5z"/>
<path d="M3013 5694 c-3 -8 -2 -21 1 -29 5 -13 27 -15 138 -13 l133 3 0 25 0
25 -133 1 c-106 2 -135 -1 -139 -12z"/>
<path d="M3417 5683 c-4 -3 -7 -103 -7 -221 0 -205 1 -214 20 -219 22 -6 26
-18 10 -28 -6 -4 -10 -73 -10 -175 0 -102 -4 -171 -10 -175 -5 -3 -10 -23 -10
-44 0 -31 4 -40 21 -44 23 -6 17 -27 -7 -27 -8 0 -14 -9 -14 -20 0 -22 10 -24
84 -14 l46 7 0 123 0 124 30 0 c17 0 30 5 30 10 0 6 -13 10 -30 10 -27 0 -30
3 -30 34 0 19 -3 41 -6 50 -5 13 1 16 25 16 21 0 31 5 31 15 0 12 13 15 60 15
46 0 60 3 60 14 0 8 -5 18 -10 21 -12 7 -10 64 2 71 4 3 8 18 8 34 l0 29 -82
3 -83 3 -3 113 -3 112 101 0 100 0 0 85 0 85 -158 0 c-87 0 -162 -3 -165 -7z
m123 -703 c0 -5 -11 -10 -25 -10 -14 0 -25 5 -25 10 0 6 11 10 25 10 14 0 25
-4 25 -10z"/>
<path d="M3920 5679 c-32 -13 -78 -57 -96 -90 -27 -54 -37 -128 -43 -344 l-6
-220 -28 -3 c-23 -3 -28 -8 -25 -25 2 -17 11 -23 41 -25 34 -3 37 -1 37 22 0
19 5 26 20 26 28 0 27 -40 0 -47 -18 -5 -21 -12 -18 -52 3 -42 5 -46 31 -49
26 -3 27 -5 27 -63 0 -44 4 -61 15 -65 8 -4 15 -12 15 -20 0 -11 23 -14 110
-14 91 0 110 3 110 15 0 10 10 15 30 15 30 0 30 0 30 60 0 42 4 61 15 67 12 7
15 42 17 183 3 172 3 175 25 178 20 3 22 -2 25 -45 3 -44 5 -48 31 -51 35 -4
30 -26 -6 -30 l-27 -3 0 -195 0 -194 65 0 65 0 0 70 c0 41 -4 70 -10 70 -7 0
-10 42 -8 118 l3 117 42 3 42 3 3 -68 c3 -62 5 -68 28 -73 24 -6 25 -9 30
-115 l5 -110 60 0 60 0 3 68 3 67 -31 0 c-23 0 -30 4 -30 20 0 13 7 20 20 20
19 0 20 7 20 114 l0 115 -32 3 c-41 4 -54 38 -15 38 15 0 28 8 35 24 42 92 42
330 1 412 -37 74 -67 85 -224 82 l-130 -3 -3 -212 -2 -213 -25 0 c-16 0 -25
-6 -25 -15 0 -8 -9 -15 -20 -15 -11 0 -20 7 -20 15 0 8 9 15 20 15 19 0 20 7
20 95 0 223 -60 326 -194 332 -33 2 -72 -2 -86 -8z m104 -159 c39 -15 46 -61
46 -337 l0 -252 -22 -3 c-17 -2 -24 -11 -26 -31 -3 -27 -5 -28 -55 -25 l-52 3
-3 178 c-2 169 -3 177 -22 177 -11 0 -20 7 -20 15 0 8 8 15 18 15 16 0 20 14
28 116 9 103 13 119 33 135 26 21 39 23 75 9z m464 2 c17 -12 32 -68 32 -124
l0 -48 -35 0 c-42 0 -49 -27 -8 -32 32 -4 38 -17 19 -43 -10 -14 -26 -19 -62
-19 l-49 -1 -3 124 c-1 69 0 131 2 138 6 14 83 18 104 5z m72 -187 c0 -9 -9
-15 -25 -15 -18 0 -23 4 -19 15 4 8 15 15 25 15 10 0 19 -7 19 -15z"/>
<path d="M5150 5470 c0 -189 -2 -220 -15 -220 -8 0 -15 -7 -15 -15 0 -8 6 -15
14 -15 8 0 16 7 20 15 3 8 17 15 31 15 16 0 25 -6 25 -15 0 -10 -10 -15 -30
-15 l-30 0 0 -255 0 -255 55 0 55 0 0 244 c0 153 4 247 10 251 6 4 10 97 10
246 l0 239 -65 0 -65 0 0 -220z"/>
<path d="M5330 5456 c0 -146 4 -237 10 -241 6 -3 10 -52 10 -111 l0 -104 65 0
c51 0 65 -3 65 -15 0 -12 -15 -15 -75 -15 -61 0 -75 3 -75 16 0 11 -8 14 -27
12 -39 -4 -42 -28 -4 -28 l31 0 0 -130 0 -130 75 0 c43 0 75 4 75 10 0 6 32
10 75 10 l75 0 0 85 0 85 64 0 65 0 3 33 c2 24 8 32 23 32 19 0 20 -8 23 -127
l3 -128 67 0 c38 0 72 4 78 9 5 6 41 11 79 13 l70 3 3 82 3 82 62 3 62 3 3 33
c3 31 6 33 35 30 l32 -3 3 -127 3 -128 49 0 c28 0 50 5 50 10 0 6 40 10 100
10 l100 0 0 54 c0 30 3 61 6 70 5 13 -7 16 -78 18 -82 3 -83 3 -86 29 -2 17
-11 30 -25 34 l-22 8 23 4 c21 4 22 9 22 104 l0 99 74 0 74 0 -2 78 -3 77 -84
5 -84 5 0 100 0 100 98 3 97 3 0 79 0 80 -160 0 -160 0 -2 -237 -3 -238 -25
-3 c-34 -4 -46 29 -54 143 -14 195 -49 284 -126 323 -38 19 -60 22 -164 22
l-119 0 6 -345 7 -345 -30 0 -30 0 0 114 c0 66 -4 117 -10 121 -5 3 -10 41
-10 83 -1 152 -36 277 -92 330 -36 33 -80 42 -205 42 l-113 0 0 -234z m223 58
c33 -10 51 -63 55 -169 2 -55 8 -104 13 -109 5 -6 9 -54 9 -108 0 -90 -2 -98
-19 -98 -11 0 -26 -7 -35 -15 -8 -8 -32 -15 -55 -15 l-41 0 0 114 c0 66 -4
117 -10 121 -11 7 -14 278 -3 289 6 6 42 2 86 -10z m486 -8 c27 -21 43 -81 49
-179 3 -53 9 -100 13 -103 5 -3 9 -47 9 -98 l0 -94 -35 -6 c-19 -4 -35 -11
-35 -16 0 -6 -18 -10 -40 -10 -27 0 -43 -5 -46 -15 -8 -19 -68 -21 -62 -2 3 6
17 13 31 15 15 2 27 9 28 15 3 56 -1 220 -5 225 -8 8 -7 277 1 285 9 10 74 -3
92 -17z m311 -316 c0 -5 -12 -10 -26 -10 l-27 0 6 -90 6 -90 -35 0 c-24 0 -34
-5 -34 -15 0 -12 -18 -15 -100 -15 l-100 0 0 -35 c0 -34 -1 -35 -40 -35 -22 0
-41 3 -41 8 -8 51 -5 57 39 60 28 2 42 8 42 18 0 11 20 14 100 14 l100 0 0 90
0 90 30 0 c17 0 30 5 30 10 0 6 11 10 25 10 14 0 25 -4 25 -10z m-600 -205 c0
-12 -17 -15 -89 -15 l-90 0 -3 -32 c-3 -31 -6 -33 -45 -36 l-43 -3 0 35 c0 36
0 36 45 36 33 0 45 4 45 15 0 12 17 15 90 15 73 0 90 -3 90 -15z"/>
<path d="M6690 5390 c0 -193 -4 -300 -10 -300 -6 0 -10 -70 -10 -191 l0 -190
53 3 52 3 3 80 c2 43 8 85 14 92 7 8 10 94 9 252 -1 158 2 241 8 246 8 4 11
-21 11 -76 0 -106 73 -395 102 -402 15 -4 18 -17 18 -86 l0 -81 85 0 85 0 0
65 c0 58 -2 65 -20 65 -13 0 -20 7 -20 20 0 14 7 20 22 20 21 0 21 1 15 167
-4 91 -7 267 -7 390 l0 224 -57 -3 -58 -3 -3 -233 c-2 -208 -4 -233 -18 -230
-12 2 -33 62 -79 233 l-62 230 -66 3 -67 3 0 -301z m260 -190 c0 -15 -7 -20
-29 -20 -31 0 -47 13 -36 30 3 6 19 10 36 10 22 0 29 -5 29 -20z m85 0 c0 -9
-11 -16 -27 -18 -24 -3 -28 -8 -29 -35 l-1 -32 -9 30 c-5 19 -5 31 1 33 6 2
10 13 10 23 0 16 6 20 28 17 16 -2 27 -9 27 -18z"/>
<path d="M4680 5451 c0 -143 4 -232 10 -236 18 -11 11 -35 -12 -45 l-23 -9 22
0 c22 -1 22 -5 25 -123 3 -120 4 -123 26 -126 15 -2 22 -9 20 -20 -2 -9 -8
-17 -13 -17 -27 -1 -35 -19 -35 -78 0 -58 2 -63 27 -74 31 -15 179 -18 188 -4
3 5 36 9 73 8 62 -2 67 0 70 21 3 17 -2 22 -17 22 -27 0 -27 16 1 23 20 6 21
10 15 83 -4 42 -7 103 -7 136 l0 58 -60 0 c-33 0 -60 4 -60 10 0 11 113 14
124 3 7 -7 46 -15 46 -9 0 27 -39 98 -67 123 l-37 33 25 47 c21 43 24 61 23
159 0 97 -4 117 -25 160 -36 72 -65 84 -216 84 l-123 0 0 -229z m224 49 c6 -6
11 -49 11 -100 0 -101 -8 -116 -65 -122 l-35 -3 -3 109 c-1 61 0 116 3 124 6
17 70 11 89 -8z m-149 -330 c4 -6 -6 -10 -22 -10 -22 0 -25 2 -13 10 19 12 27
12 35 0z m175 -55 c0 -21 -5 -25 -31 -25 -17 0 -28 -4 -24 -10 3 -5 17 -10 31
-10 24 0 24 -1 24 -95 0 -87 -2 -95 -19 -95 -11 0 -23 -4 -26 -10 -3 -5 -22
-10 -41 -10 l-34 0 0 140 0 140 60 0 c57 0 60 -1 60 -25z"/>
<path d="M3090 5541 c0 -15 6 -21 21 -21 25 0 22 33 -4 38 -12 2 -17 -3 -17
-17z"/>
<path d="M3240 5480 c0 -5 18 -10 40 -10 22 0 40 5 40 10 0 6 -18 10 -40 10
-22 0 -40 -4 -40 -10z"/>
<path d="M2930 5035 l0 -46 98 3 97 3 0 40 0 40 -97 3 -98 3 0 -46z"/>
<path d="M3066 4755 c-3 -9 1 -18 10 -22 19 -7 28 2 21 22 -8 19 -23 19 -31 0z"/>
<path d="M6945 4720 c-4 -6 32 -10 100 -10 62 0 104 4 101 9 -8 13 -193 13
-201 1z"/>
<path d="M4555 4681 c-10 -33 2 -41 61 -41 54 0 55 0 52 28 -3 25 -7 27 -55
30 -44 3 -52 0 -58 -17z"/>
<path d="M4400 4625 l0 -35 66 0 65 0 -3 33 c-3 32 -3 32 -65 35 l-63 3 0 -36z"/>
<path d="M5550 4605 l0 -26 98 3 c89 3 97 5 97 23 0 18 -8 20 -97 23 l-98 3 0
-26z"/>
<path d="M3290 4570 c0 -18 7 -20 75 -20 l75 0 0 -30 c0 -29 2 -30 45 -30 43
0 45 1 45 30 0 29 -2 30 -45 30 -38 0 -45 3 -45 20 0 18 -7 20 -75 20 -68 0
-75 -2 -75 -20z"/>
<path d="M6650 4515 c0 -34 1 -35 40 -35 39 0 40 1 40 35 0 34 -1 35 -40 35
-39 0 -40 -1 -40 -35z"/>
<path d="M7040 4520 c0 -18 7 -20 85 -20 78 0 85 2 85 20 0 18 -7 20 -85 20
-78 0 -85 -2 -85 -20z"/>
<path d="M6977 4483 c-4 -3 -7 -14 -7 -24 0 -21 32 -32 76 -27 23 2 30 9 32
31 3 26 2 27 -46 27 -27 0 -52 -3 -55 -7z"/>
<path d="M5824 4355 c-7 -18 3 -35 22 -35 8 0 14 10 14 25 0 27 -27 35 -36 10z"/>
<path d="M2906 4303 c-14 -15 -4 -57 20 -79 14 -13 29 -24 35 -24 16 0 10 -32
-8 -46 -17 -13 -17 -13 0 -14 11 0 17 -8 17 -25 0 -22 4 -25 35 -25 l35 0 0
51 c0 42 3 52 20 56 11 3 20 12 20 19 0 8 6 14 14 14 15 0 26 21 26 50 0 12
-9 19 -28 22 -43 6 -52 0 -52 -38 0 -34 -1 -35 -32 -32 -29 3 -33 7 -36 36 -2
17 -6 32 -10 33 -4 0 -16 2 -28 4 -12 3 -24 2 -28 -2z m89 -153 c3 -5 -1 -10
-9 -10 -9 0 -16 5 -16 10 0 6 4 10 9 10 6 0 13 -4 16 -10z"/>
<path d="M3222 4288 c-2 -10 -11 -18 -18 -18 -9 0 -14 -12 -14 -35 0 -24 5
-35 15 -35 8 0 15 -9 15 -20 0 -11 -7 -20 -15 -20 -21 0 -19 -15 9 -44 20 -22
32 -26 81 -26 49 0 61 4 81 26 13 14 24 29 24 35 0 5 5 9 10 9 6 0 10 7 10 15
0 8 -4 15 -10 15 -5 0 -10 18 -10 40 0 29 -4 40 -15 40 -8 0 -15 7 -15 15 0
17 -2 17 -84 19 -49 2 -60 -1 -64 -16z m108 -58 c0 -39 1 -40 35 -40 26 0 35
-4 35 -16 0 -13 -8 -15 -35 -12 -29 3 -35 1 -35 -14 0 -14 -8 -18 -35 -18
l-35 0 0 70 0 70 35 0 c34 0 35 -1 35 -40z"/>
<path d="M3483 4303 c-9 -3 -13 -31 -13 -89 0 -77 2 -84 20 -84 13 0 20 -7 20
-20 0 -18 7 -20 69 -20 60 0 69 2 74 20 3 11 12 20 21 20 10 0 16 9 16 24 0
15 7 26 20 29 11 3 20 10 20 17 0 7 -9 14 -20 17 -16 4 -20 14 -20 43 0 33 -3
38 -27 43 -16 3 -31 3 -35 0 -5 -2 -8 -34 -8 -70 0 -56 -3 -66 -20 -70 -11 -3
-20 -12 -20 -19 0 -9 -12 -14 -35 -14 l-35 0 0 84 c0 85 -4 97 -27 89z m207
-103 c0 -15 -7 -20 -25 -20 -18 0 -25 5 -25 20 0 15 7 20 25 20 18 0 25 -5 25
-20z"/>
<path d="M3932 4303 l-33 -4 3 -102 3 -102 88 -3 c75 -2 87 -1 87 14 0 9 9 18
20 21 14 4 20 14 20 34 0 19 5 29 15 29 8 0 15 5 15 10 0 6 -7 10 -15 10 -10
0 -15 10 -15 30 0 20 -5 30 -15 30 -7 0 -18 7 -23 16 -10 17 -80 25 -150 17z
m78 -103 l0 -70 -35 0 -35 0 0 70 0 70 35 0 35 0 0 -70z m110 0 c0 -5 -18 -10
-40 -10 -22 0 -40 5 -40 10 0 6 18 10 40 10 22 0 40 -4 40 -10z"/>
<path d="M4229 4288 c-5 -10 -16 -18 -24 -18 -12 0 -15 -15 -15 -70 0 -57 3
-70 16 -70 9 0 18 -9 21 -20 5 -18 14 -20 74 -20 l69 0 0 35 c0 28 4 35 20 35
11 0 20 -7 20 -15 0 -17 16 -20 25 -5 3 6 -1 13 -9 16 -12 4 -16 20 -16 56 0
41 -3 51 -19 55 -11 3 -21 12 -23 22 -5 24 -126 24 -139 -1z m101 -88 l0 -70
-35 0 -35 0 0 63 c0 35 3 67 7 70 3 4 19 7 35 7 l28 0 0 -70z"/>
<path d="M4626 4303 c-3 -4 -6 -53 -6 -110 0 -96 1 -103 20 -103 18 0 20 7 20
55 0 42 3 55 15 55 8 0 15 -7 15 -16 0 -9 9 -18 20 -21 11 -3 20 -12 20 -19 0
-8 7 -14 16 -14 9 0 18 -9 21 -20 4 -15 14 -20 39 -20 l34 0 0 104 c0 110 -3
116 -47 108 -18 -3 -22 -12 -25 -50 -2 -35 -7 -48 -20 -50 -11 -2 -18 3 -18
11 0 8 -9 17 -20 20 -11 3 -20 12 -20 21 0 9 -7 16 -15 16 -8 0 -15 6 -15 14
0 15 -24 28 -34 19z"/>
<path d="M4949 4288 c-5 -10 -16 -18 -24 -18 -12 0 -15 -15 -15 -65 0 -91 24
-115 115 -115 52 0 65 3 65 15 0 9 6 18 13 21 9 3 14 28 15 74 2 57 0 70 -13
70 -8 0 -15 7 -15 15 0 17 3 17 -73 19 -47 2 -60 -1 -68 -16z m101 -52 c0 -19
-6 -37 -12 -40 -10 -5 -10 -7 0 -12 6 -3 12 -17 12 -30 0 -21 -5 -24 -35 -24
l-35 0 0 70 0 70 35 0 c33 0 35 -2 35 -34z m55 -46 c-3 -5 -17 -10 -31 -10
-13 0 -24 5 -24 10 0 6 14 10 31 10 17 0 28 -4 24 -10z"/>
<path d="M5213 4303 c-29 -10 -13 -33 22 -33 l35 0 0 -90 0 -90 35 0 35 0 0
60 0 60 50 0 c28 0 50 5 50 10 0 6 -22 10 -50 10 -43 0 -50 3 -50 20 0 16 7
20 35 20 24 0 35 5 35 15 0 8 -3 16 -7 16 -25 4 -180 5 -190 2z m127 -83 c0
-5 -11 -10 -25 -10 -14 0 -25 5 -25 10 0 6 11 10 25 10 14 0 25 -4 25 -10z"/>
<path d="M7092 4283 c4 -36 33 -39 33 -3 0 16 -6 26 -18 28 -15 3 -18 -2 -15
-25z"/>
<path d="M3120 4180 c0 -16 7 -20 35 -20 28 0 35 4 35 20 0 16 -7 20 -35 20
-28 0 -35 -4 -35 -20z"/>
<path d="M5120 4160 c0 -5 9 -10 20 -10 11 0 20 5 20 10 0 6 -9 10 -20 10 -11
0 -20 -4 -20 -10z"/>
<path d="M2900 3945 c0 -10 -10 -15 -31 -15 -17 0 -28 -4 -24 -10 3 -5 17 -10
31 -10 23 0 24 -2 24 -80 0 -73 2 -80 20 -80 17 0 20 7 20 50 l0 50 50 0 50 0
0 -51 0 -50 38 3 37 3 0 100 0 100 -35 0 c-32 0 -35 -3 -38 -32 -3 -32 -4 -33
-53 -33 -27 0 -49 5 -49 10 0 6 -9 10 -20 10 -11 0 -20 5 -20 10 0 6 9 10 20
10 11 0 20 -4 20 -10 0 -5 7 -10 15 -10 8 0 15 5 15 10 0 6 -6 10 -14 10 -8 0
-16 7 -20 15 -3 8 -12 15 -21 15 -8 0 -15 -7 -15 -15z"/>
<path d="M3222 3943 c2 -12 13 -17 33 -18 27 0 30 -3 33 -38 3 -38 3 -38 -30
-35 -29 3 -34 7 -38 36 -8 56 -25 41 -28 -25 -3 -55 -6 -63 -22 -63 -11 0 -20
-4 -20 -10 0 -5 9 -10 20 -10 11 0 20 -7 20 -15 0 -8 7 -15 15 -15 8 0 15 7
15 15 0 8 9 15 20 15 11 0 20 5 20 10 0 6 -9 10 -20 10 -11 0 -20 -4 -20 -10
0 -5 -7 -10 -15 -10 -8 0 -15 3 -15 8 0 11 51 32 77 32 20 0 23 -5 23 -35 l0
-35 55 0 55 0 1 48 c2 89 -3 116 -24 139 -19 19 -32 23 -90 23 -59 0 -68 -2
-65 -17z"/>
<path d="M3477 3953 c-4 -3 -7 -35 -7 -70 0 -56 2 -63 20 -63 13 0 20 -7 20
-20 0 -11 7 -20 15 -20 9 0 18 -7 21 -15 4 -9 19 -15 40 -15 24 0 34 5 34 15
0 8 7 15 15 15 8 0 15 7 15 16 0 9 9 18 20 21 18 5 20 14 20 74 l0 69 -35 0
c-33 0 -35 -2 -35 -35 0 -28 -4 -35 -19 -35 -19 0 -35 -23 -24 -34 15 -14 43
-5 43 14 0 15 7 20 25 20 18 0 25 -5 25 -20 0 -15 -7 -20 -25 -20 -15 0 -25
-6 -25 -14 0 -7 -9 -16 -20 -19 -11 -3 -20 -12 -20 -21 0 -23 -27 -20 -35 4
-3 11 -13 20 -21 20 -11 0 -14 16 -14 70 0 52 -3 70 -13 70 -8 0 -17 -3 -20
-7z"/>
<path d="M3760 3855 l0 -105 111 0 c84 0 110 3 107 13 -3 7 -31 14 -74 17
l-69 5 -3 32 -3 32 53 3 c40 2 54 7 56 20 3 14 -6 17 -50 20 -39 2 -53 7 -53
18 0 12 16 16 73 18 52 2 72 6 69 15 -2 8 -38 13 -110 15 l-107 3 0 -106z"/>
<path d="M4190 3855 l0 -105 34 0 c32 0 35 3 38 33 3 31 4 32 56 35 35 2 52 7
52 16 0 8 9 16 20 19 15 4 20 14 20 37 0 23 -5 33 -20 37 -11 3 -20 12 -20 19
0 11 -20 14 -90 14 l-90 0 0 -105z m138 32 c3 -38 3 -38 -30 -35 -26 2 -34 8
-36 26 -6 38 5 54 35 50 24 -3 28 -8 31 -41z"/>
<path d="M4480 3855 l0 -105 105 0 c87 0 105 3 105 15 0 12 -14 15 -70 15 -54
0 -70 3 -70 14 0 8 -6 16 -12 18 -27 9 20 37 68 40 37 2 50 7 52 21 3 14 -5
17 -53 17 -48 0 -56 3 -53 18 3 14 16 18 71 20 51 2 67 6 67 17 0 12 -20 15
-105 15 l-105 0 0 -105z"/>
<path d="M4770 3855 l0 -105 35 0 c33 0 35 2 35 35 0 39 24 50 33 15 3 -11 12
-20 21 -20 9 0 16 -7 16 -15 0 -10 11 -15 35 -15 24 0 35 5 35 15 0 10 -11 15
-35 15 -28 0 -35 4 -35 20 0 11 5 20 11 20 21 0 59 45 59 70 0 14 -11 35 -24
48 -21 19 -35 22 -105 22 l-81 0 0 -105z m135 35 c0 -32 -3 -35 -32 -38 -31
-3 -33 -2 -33 31 0 41 3 44 38 43 24 -1 27 -5 27 -36z"/>
<path d="M5050 3935 c0 -16 -6 -25 -15 -25 -8 0 -15 -4 -15 -10 0 -5 7 -10 15
-10 12 0 15 -14 15 -70 0 -63 2 -70 20 -70 17 0 20 7 20 50 0 38 4 50 15 50 8
0 15 -7 15 -15 0 -8 9 -15 20 -15 11 0 20 6 20 14 0 7 10 16 23 20 35 9 87 7
87 -4 0 -5 -16 -10 -35 -10 -35 0 -35 0 -35 -45 0 -45 0 -45 35 -45 35 0 35 0
35 45 0 41 2 45 25 45 14 0 25 5 25 10 0 6 -11 10 -25 10 -23 0 -25 3 -25 50
l0 50 -35 0 c-24 0 -35 -5 -35 -15 0 -8 -7 -15 -16 -15 -9 0 -18 -9 -21 -20
-7 -26 -33 -26 -40 0 -3 11 -10 17 -15 14 -5 -3 -12 3 -15 15 -8 31 -43 28
-43 -4z m30 -35 c0 -5 -7 -10 -15 -10 -8 0 -15 5 -15 10 0 6 7 10 15 10 8 0
15 -4 15 -10z"/>
<path d="M5380 3946 c0 -8 7 -16 15 -20 11 -4 15 -22 15 -76 0 -56 -3 -70 -15
-70 -8 0 -15 -7 -15 -15 0 -12 14 -15 70 -15 56 0 70 3 70 15 0 8 -7 15 -15
15 -9 0 -18 7 -21 15 -4 8 -12 15 -20 15 -8 0 -14 10 -14 25 0 16 6 25 15 25
10 0 15 10 15 31 0 22 5 32 20 36 11 3 20 12 20 19 0 11 -17 14 -70 14 -53 0
-70 -3 -70 -14z"/>
<path d="M5653 3936 c-26 -27 -30 -46 -9 -46 7 0 16 -9 19 -20 4 -15 14 -20
36 -20 29 0 31 -3 31 -35 0 -33 -2 -35 -35 -35 -28 0 -35 4 -35 20 0 11 -7 20
-15 20 -8 0 -15 -9 -15 -20 0 -11 7 -20 15 -20 8 0 15 -7 15 -15 0 -12 15 -15
75 -15 60 0 75 3 75 15 0 8 7 15 15 15 10 0 15 11 15 35 0 23 -5 35 -14 35 -7
0 -16 9 -19 20 -4 17 -14 20 -57 20 -44 0 -51 3 -48 18 2 13 15 18 56 20 77 4
63 26 -19 30 -56 2 -67 -1 -86 -22z"/>
<path d="M5950 3946 c0 -7 -9 -16 -20 -19 -25 -7 -26 -27 -1 -34 11 -3 21 -13
24 -24 4 -13 14 -19 34 -19 20 0 31 -7 40 -26 11 -23 10 -24 -10 -20 -12 3
-16 3 -9 0 23 -11 12 -24 -22 -24 -26 0 -35 5 -39 21 -6 22 -28 22 -35 0 -2
-7 5 -15 17 -18 12 -3 21 -12 21 -19 0 -11 17 -14 70 -14 56 0 70 3 70 15 0 8
9 15 20 15 16 0 20 7 20 35 0 25 -4 35 -16 35 -9 0 -18 9 -21 20 -4 16 -14 20
-52 20 -26 0 -51 3 -54 7 -15 14 18 33 59 33 32 0 44 4 44 15 0 12 -14 15 -70
15 -53 0 -70 -3 -70 -14z"/>
<path d="M6240 3946 c0 -8 7 -16 15 -20 8 -3 15 -16 15 -30 0 -13 6 -26 13
-29 10 -4 10 -7 0 -18 -7 -7 -13 -26 -13 -41 0 -18 -5 -28 -15 -28 -24 0 -17
-28 8 -32 14 -2 23 -11 25 -25 2 -13 10 -23 17 -23 7 0 15 10 17 23 2 16 11
23 31 25 31 4 36 27 7 35 -17 4 -20 14 -20 66 0 50 4 63 20 73 40 25 23 38
-50 38 -53 0 -70 -3 -70 -14z"/>
<path d="M6518 3941 c-9 -10 -24 -24 -34 -31 -14 -8 -15 -13 -6 -16 7 -4 12
-26 12 -60 0 -41 4 -54 15 -54 8 0 15 -7 15 -15 0 -12 15 -15 75 -15 60 0 75
3 75 15 0 8 7 15 15 15 12 0 15 14 15 70 0 54 -4 72 -15 76 -8 4 -15 12 -15
20 0 11 -17 14 -68 14 -54 0 -71 -4 -84 -19z m110 -54 c3 -29 7 -37 23 -37 10
0 19 -7 19 -15 0 -8 -9 -15 -20 -15 -13 0 -20 -7 -20 -20 0 -16 -7 -20 -35
-20 l-35 0 0 68 c0 38 3 71 6 75 3 3 18 5 32 4 23 -2 27 -7 30 -40z m-113 13
c-3 -5 -10 -10 -16 -10 -5 0 -9 5 -9 10 0 6 7 10 16 10 8 0 12 -4 9 -10z"/>
<path d="M6590 3835 c0 -8 9 -15 20 -15 11 0 20 7 20 15 0 8 -9 15 -20 15 -11
0 -20 -7 -20 -15z"/>
<path d="M6774 3947 c-3 -8 -4 -54 -2 -103 3 -75 6 -89 21 -92 14 -3 17 4 17
47 0 43 3 51 19 51 11 0 21 -9 25 -23 5 -21 10 -23 68 -21 l63 1 -55 -7 c-44
-5 -50 -8 -32 -15 12 -4 22 -14 22 -21 0 -9 12 -14 35 -14 30 0 35 3 35 24 0
15 7 26 18 29 16 4 16 5 0 6 -16 1 -18 12 -18 76 l0 75 -34 0 c-35 0 -35 0
-38 -52 -3 -54 -25 -78 -35 -39 -3 12 -12 21 -19 21 -8 0 -14 6 -14 14 0 8 -9
18 -20 21 -11 3 -20 13 -20 21 0 18 -29 19 -36 1z"/>
<path d="M2780 3849 c0 -29 2 -30 38 -27 32 3 37 7 40 31 3 26 1 27 -37 27
-39 0 -41 -1 -41 -31z"/>
<path d="M6200 3855 c0 -10 11 -15 35 -15 24 0 35 5 35 15 0 10 -11 15 -35 15
-24 0 -35 -5 -35 -15z"/>
<path d="M5480 3835 c0 -21 5 -25 30 -25 25 0 30 4 30 25 0 21 -5 25 -30 25
-25 0 -30 -4 -30 -25z"/>
<path d="M4550 3820 c0 -5 13 -10 29 -10 17 0 33 5 36 10 4 6 -8 10 -29 10
-20 0 -36 -4 -36 -10z"/>
<path d="M6317 3604 c-13 -13 -7 -24 14 -24 11 0 19 5 17 12 -5 14 -22 21 -31
12z"/>
<path d="M6434 3596 c-3 -8 -4 -23 -2 -33 3 -15 14 -18 78 -18 l75 0 3 33 3
32 -76 0 c-57 0 -77 -4 -81 -14z"/>
<path d="M4052 3498 c3 -31 5 -33 43 -33 38 0 40 2 43 33 3 32 3 32 -43 32
-46 0 -46 0 -43 -32z"/>
<path d="M5370 3505 c0 -12 8 -16 33 -13 17 2 32 8 32 13 0 6 -15 11 -32 13
-25 3 -33 -1 -33 -13z"/>
<path d="M3810 3481 c0 -19 68 -28 118 -15 44 12 21 24 -48 24 -38 0 -70 -4
-70 -9z"/>
<path d="M6420 3436 c0 -24 3 -26 51 -26 47 0 50 2 47 23 -3 19 -10 22 -50 25
-46 3 -48 2 -48 -22z"/>
<path d="M3855 3300 c-12 -19 6 -30 51 -30 37 0 44 3 44 20 0 17 -7 20 -44 20
-25 0 -48 -4 -51 -10z"/>
</g>
</svg>
